<svg id="Layer_1" data-name="Layer 1" xmlns="http://www.w3.org/2000/svg" viewBox="0 0 326.91 326.83"><defs><style>.cls-1{fill:#fff;}</style></defs><title>stockInfernoLogo</title><path class="cls-1" d="M161.41,186.06H488.32V512.89H161.41Zm140.36,13.2a21.81,21.81,0,0,0-2.26.14C218.1,212.8,162.3,289.28,174.35,371c12.47,84.49,91.47,142.24,174.76,127.72,94-16.36,150-113.23,116.27-202.53-19.61-51.92-57.89-83.33-111.87-95.81-3.86-.89-5.93-.15-7.49,3.87-4.78,12.36-3,24.1,2.06,35.86a12.78,12.78,0,0,0,8.6,7.92c49.06,16.14,79.93,65.37,72.6,115.32-8.86,60.36-63,100.22-123.29,90.84-51.1-7.95-91-56.65-88.32-108.3,2-37.73,19-66.95,50.76-87.62,1.81-1.18,3.13-3.55,4-5.65,4-9.81,6.86-20.22,11.88-29.46C288.9,214.61,295.74,207.31,301.77,199.26Zm-45.53,84.47c-27.67,26.73-34.54,72.43-15.89,108.9,18.87,36.92,59.58,56.65,101.45,49.17,38.68-6.91,70.08-40.38,75.4-79.5,5.14-37.73-14.32-72.29-32.39-84,1.38,4.22,3.09,8.39,4.11,12.72,3.31,14.14,2.78,27.82-6.11,40.11a22.73,22.73,0,0,1-12.13,8.93c0-8.31.7-15.84-.15-23.2-1.69-14.66-8.44-27.55-15.75-40.13-6.19-10.65-12.66-21.16-18.2-32.14-7.75-15.35-8.93-31.22-1.22-47.12,1.41-2.91,3-5.72,4.55-8.58l-1.08-1.14c-7.85,5.74-16.12,11-23.49,17.3-27.21,23.31-41.21,57.47-24.62,95.54,2.76,6.33,3.6,13.88,3.74,20.89a20.67,20.67,0,0,1-15.33,21C270.21,345,260,341,254.41,332.54a31.91,31.91,0,0,1-4.68-24.43C251.37,299.7,254.12,291.5,256.24,283.73Z" transform="translate(-161.41 -186.06)"/><path d="M465.38,296.14c-19.61-51.92-57.89-83.33-111.87-95.81-3.86-.89-5.93-.15-7.49,3.87-4.78,12.36-3,24.1,2.06,35.86a12.78,12.78,0,0,0,8.6,7.92c49.06,16.14,79.93,65.37,72.6,115.32-8.86,60.36-63,100.22-123.29,90.84-51.1-7.95-91-56.65-88.32-108.3,2-37.73,19-66.95,50.76-87.62,1.81-1.18,3.13-3.55,4-5.65,4-9.81,6.86-20.22,11.88-29.46,4.61-8.5,11.45-15.8,17.48-23.85a21.81,21.81,0,0,0-2.26.14C218.1,212.8,162.3,289.28,174.35,371c12.47,84.49,91.47,142.24,174.76,127.72C443.07,482.31,499.1,385.44,465.38,296.14Z" transform="translate(-161.41 -186.06)"/><path d="M384.79,397.48a4.33,4.33,0,0,0-1.56-1.29,5.13,5.13,0,0,0-2.4-.5,5,5,0,0,0-2.39.5,4.22,4.22,0,0,0-1.53,1.29,5,5,0,0,0-.82,1.84,9.29,9.29,0,0,0-.24,2.11,9.12,9.12,0,0,0,.24,2.09,5.19,5.19,0,0,0,.82,1.84,4,4,0,0,0,1.53,1.29,5.16,5.16,0,0,0,2.39.49,5.26,5.26,0,0,0,2.4-.49,4.14,4.14,0,0,0,1.56-1.29,5.36,5.36,0,0,0,.81-1.84,9.12,9.12,0,0,0,.24-2.09,9.29,9.29,0,0,0-.24-2.11A5.19,5.19,0,0,0,384.79,397.48Z" transform="translate(-161.41 -186.06)"/><path d="M325.44,362.7a6.21,6.21,0,0,0-2.25-1.62,8.7,8.7,0,0,0-3.48-.62,8.5,8.5,0,0,0-3.46.62A6.27,6.27,0,0,0,314,362.7a5.8,5.8,0,0,0-1.18,2.27,10.07,10.07,0,0,0-.34,2.62,9.82,9.82,0,0,0,.34,2.6,6.13,6.13,0,0,0,1.18,2.28,5.9,5.9,0,0,0,2.22,1.61,8.69,8.69,0,0,0,3.46.6,8.9,8.9,0,0,0,3.48-.6,5.86,5.86,0,0,0,2.25-1.61,6.13,6.13,0,0,0,1.18-2.28,9.82,9.82,0,0,0,.34-2.6,10.07,10.07,0,0,0-.34-2.62A5.8,5.8,0,0,0,325.44,362.7Z" transform="translate(-161.41 -186.06)"/><path d="M384.81,278.33c1.38,4.22,3.09,8.39,4.11,12.72,3.31,14.14,2.78,27.82-6.11,40.11a22.73,22.73,0,0,1-12.13,8.93c0-8.31.7-15.84-.15-23.2-1.69-14.66-8.44-27.55-15.75-40.13-6.19-10.65-12.66-21.16-18.2-32.14-7.75-15.35-8.93-31.22-1.22-47.12,1.41-2.91,3-5.72,4.55-8.58l-1.08-1.14c-7.85,5.74-16.12,11-23.49,17.3-27.21,23.31-41.21,57.47-24.62,95.54,2.76,6.33,3.6,13.88,3.74,20.89a20.67,20.67,0,0,1-15.33,21C270.21,345,260,341,254.41,332.54a31.91,31.91,0,0,1-4.68-24.43c1.64-8.41,4.39-16.61,6.51-24.38-27.67,26.73-34.54,72.43-15.89,108.9,18.87,36.92,59.58,56.65,101.45,49.17,38.68-6.91,70.08-40.38,75.4-79.5C422.34,324.57,399.48,289.33,384.81,278.33ZM282.22,356.47h4.95v-6.66h8.18v6.66h6v4.08h-6v11a2.46,2.46,0,0,0,.69,2.06,5,5,0,0,0,2.76.52c.46,0,.9,0,1.33,0s.82-.07,1.21-.13v4.72q-1,.13-2.31.18c-.84,0-1.67,0-2.47,0a31.5,31.5,0,0,1-3.6-.2,10.15,10.15,0,0,1-3-.75,4.79,4.79,0,0,1-2-1.59,4.47,4.47,0,0,1-.75-2.7v-13.1h-4.95Zm-15.73,53.89h-6.24V385.65h6.24Zm-3.1-31a34.84,34.84,0,0,1-6.6-.62,19.63,19.63,0,0,1-5.64-2,11.11,11.11,0,0,1-3.89-3.39,8,8,0,0,1-1.38-4.9h8.75a4.45,4.45,0,0,0,.75,2.62,5.52,5.52,0,0,0,2,1.74,9.86,9.86,0,0,0,2.91,1,17.71,17.71,0,0,0,3.45.32,24.32,24.32,0,0,0,2.6-.15,11.25,11.25,0,0,0,2.59-.58,5.69,5.69,0,0,0,2-1.18,2.49,2.49,0,0,0,.81-1.91,2.4,2.4,0,0,0-1.07-2,9.55,9.55,0,0,0-2.79-1.29,36.52,36.52,0,0,0-3.92-.9c-1.46-.26-2.93-.54-4.43-.86a45.89,45.89,0,0,1-4.49-1,17.2,17.2,0,0,1-3.92-1.61,8.69,8.69,0,0,1-2.79-2.47,6,6,0,0,1-1.07-3.59,6.45,6.45,0,0,1,1.36-4.1,10.87,10.87,0,0,1,3.54-2.9,18.64,18.64,0,0,1,5-1.72,28,28,0,0,1,5.53-.55,35.48,35.48,0,0,1,6.19.53,18.55,18.55,0,0,1,5.27,1.74,10.47,10.47,0,0,1,3.66,3.07,7.55,7.55,0,0,1,1.35,4.53h-8.75a4.42,4.42,0,0,0-.78-2.27,4.5,4.5,0,0,0-1.76-1.42,9,9,0,0,0-2.5-.73,21,21,0,0,0-3.08-.21,13.47,13.47,0,0,0-2.19.17,6.9,6.9,0,0,0-2,.6,4.81,4.81,0,0,0-1.47,1.07A2.38,2.38,0,0,0,256,356a2.23,2.23,0,0,0,.46,1.47,4.18,4.18,0,0,0,1.81,1,29,29,0,0,0,3.74.94q2.4.48,6.25,1.2c.77.12,1.84.33,3.2.63a18.11,18.11,0,0,1,4.06,1.44,11,11,0,0,1,3.48,2.64,6.12,6.12,0,0,1,1.47,4.23,7.42,7.42,0,0,1-1.09,3.91,9.4,9.4,0,0,1-3.26,3.11,18.22,18.22,0,0,1-5.35,2A33.28,33.28,0,0,1,263.39,379.36Zm27.29,31H285V400.25a5.52,5.52,0,0,0-.8-3.3,3.26,3.26,0,0,0-2.82-1.09,4.22,4.22,0,0,0-3.34,1.19,6,6,0,0,0-1,3.93v9.38h-5.65V392.47h5.38V395h.11a6.3,6.3,0,0,1,2.79-2.27,9.12,9.12,0,0,1,3.5-.71,10.84,10.84,0,0,1,3.72.54,5.5,5.5,0,0,1,2.29,1.49,5.37,5.37,0,0,1,1.17,2.32,12.35,12.35,0,0,1,.34,3Zm15.4-20.9a19.9,19.9,0,0,0-2.07-.11,2.37,2.37,0,0,0-1.65.47,2.06,2.06,0,0,0-.5,1.57v1.08h3.9v3.28h-3.9v14.61h-5.65V395.75h-3.38v-3.28h3.38v-1.39a5,5,0,0,1,1.71-3.91,7.6,7.6,0,0,1,5.17-1.52c.51,0,1,0,1.51.05l1.48.09Zm21.64,13.15H312.88a4.61,4.61,0,0,0,1.39,3.46,6.51,6.51,0,0,0,6.61.32,3.23,3.23,0,0,0,1.51-1.57h5a8.34,8.34,0,0,1-3.66,4.6,12.06,12.06,0,0,1-6,1.39,13.23,13.23,0,0,1-4.37-.68,9.4,9.4,0,0,1-3.31-1.92,8.69,8.69,0,0,1-2.09-3,9.69,9.69,0,0,1-.73-3.81,9.32,9.32,0,0,1,.75-3.74,8.76,8.76,0,0,1,2.15-3,10.25,10.25,0,0,1,3.33-2,12.11,12.11,0,0,1,4.27-.73,11,11,0,0,1,4.58.89,8.76,8.76,0,0,1,3.2,2.37,9.26,9.26,0,0,1,1.81,3.39A11.21,11.21,0,0,1,327.72,402.61Zm-1.65-24.19a23.24,23.24,0,0,1-6.36.81,22.94,22.94,0,0,1-6.34-.81,14.7,14.7,0,0,1-4.83-2.35,10.22,10.22,0,0,1-4.21-8.48,10.71,10.71,0,0,1,1.09-4.83,10.42,10.42,0,0,1,3.12-3.69,14.92,14.92,0,0,1,4.83-2.37,22.54,22.54,0,0,1,6.34-.83,22.84,22.84,0,0,1,6.36.83,15,15,0,0,1,4.87,2.37,10.49,10.49,0,0,1,3.11,3.69,10.71,10.71,0,0,1,1.09,4.83,10.24,10.24,0,0,1-4.2,8.48A14.82,14.82,0,0,1,326.07,378.42Zm18.24,18.3-1-.12c-.37,0-.73-.05-1.07-.05a6.82,6.82,0,0,0-2.63.45,4.39,4.39,0,0,0-2.66,3,8.56,8.56,0,0,0-.28,2.25v8.07h-5.65V392.47h5.37v3.32h.08a5.85,5.85,0,0,1,1.07-1.54,6.81,6.81,0,0,1,1.55-1.21,7.87,7.87,0,0,1,1.87-.78,8,8,0,0,1,2.07-.28,4.88,4.88,0,0,1,1.24.18Zm22.23,13.64H360.9V400.25a5.59,5.59,0,0,0-.8-3.3,3.26,3.26,0,0,0-2.82-1.09,4.24,4.24,0,0,0-3.35,1.19,6,6,0,0,0-1,3.93v9.38h-5.65V392.47h5.37V395h.12a6.27,6.27,0,0,1,2.78-2.27A9.17,9.17,0,0,1,359,392a10.84,10.84,0,0,1,3.72.54A5.46,5.46,0,0,1,365,394a5.38,5.38,0,0,1,1.18,2.32,12.88,12.88,0,0,1,.33,3Zm-2.26-33.45a18.4,18.4,0,0,1-9.73,2.32,21.3,21.3,0,0,1-6.14-.84,14.35,14.35,0,0,1-4.75-2.34,10.86,10.86,0,0,1-3.05-3.58,9.7,9.7,0,0,1-1.09-4.58,11.45,11.45,0,0,1,1-4.79,10.64,10.64,0,0,1,3-3.82,14.27,14.27,0,0,1,4.78-2.51,21.21,21.21,0,0,1,6.45-.9,25.06,25.06,0,0,1,5.1.51,16.12,16.12,0,0,1,4.37,1.57,9.78,9.78,0,0,1,3.14,2.62,6.74,6.74,0,0,1,1.38,3.71h-8c-.54-2.54-2.55-3.82-6-3.82a7.18,7.18,0,0,0-3.28.67,6.32,6.32,0,0,0-3.34,4,9.5,9.5,0,0,0-.35,2.51,9.18,9.18,0,0,0,.35,2.45,6.43,6.43,0,0,0,1.12,2.25,5.85,5.85,0,0,0,2.1,1.65,7.35,7.35,0,0,0,3.23.65,7.24,7.24,0,0,0,4.52-1.23,5.26,5.26,0,0,0,2-3.28h7.89A9.57,9.57,0,0,1,364.28,376.91Zm26.45,28.39a8.25,8.25,0,0,1-2.15,3,9.48,9.48,0,0,1-3.36,1.89,13.76,13.76,0,0,1-4.39.66,13.61,13.61,0,0,1-4.38-.66,9.66,9.66,0,0,1-3.34-1.89,8.25,8.25,0,0,1-2.15-3,9.61,9.61,0,0,1-.76-3.87,9.74,9.74,0,0,1,.76-3.89,8.24,8.24,0,0,1,2.15-3,9.84,9.84,0,0,1,3.34-1.9,13.33,13.33,0,0,1,4.38-.68,13.48,13.48,0,0,1,4.39.68,9.66,9.66,0,0,1,3.36,1.9,8.24,8.24,0,0,1,2.15,3,9.58,9.58,0,0,1,.76,3.89A9.45,9.45,0,0,1,390.73,405.3Zm3-26.63-8.18-9.92L382.42,371v7.64h-8.18V348h8.18v16.45l10.31-8h9.67l-11.23,8.16,12.5,14Z" transform="translate(-161.41 -186.06)"/><path d="M317.57,395.69a5.59,5.59,0,0,0-2.24.39,4.37,4.37,0,0,0-1.44,1,3.38,3.38,0,0,0-.75,1.24,4.61,4.61,0,0,0-.26,1.18h9.19a5.48,5.48,0,0,0-1.41-2.84A4.37,4.37,0,0,0,317.57,395.69Z" transform="translate(-161.41 -186.06)"/></svg>